<mxfile host="app.diagrams.net" agent="Mozilla/5.0 (Windows NT 10.0; Win64; x64) AppleWebKit/537.36 (KHTML, like Gecko) Chrome/128.0.0.0 Safari/537.36" version="24.7.8">
  <diagram id="C5RBs43oDa-KdzZeNtuy" name="Page-1">
    <mxGraphModel grid="1" page="1" gridSize="10" guides="1" tooltips="1" connect="1" arrows="1" fold="1" pageScale="1" pageWidth="827" pageHeight="1169" math="0" shadow="0">
      <root>
        <mxCell id="WIyWlLk6GJQsqaUBKTNV-0" />
        <mxCell id="WIyWlLk6GJQsqaUBKTNV-1" parent="WIyWlLk6GJQsqaUBKTNV-0" />
        <mxCell id="H1jrmsrq5WMabytAlDn--7" value="MarcaFogo" style="swimlane;fontStyle=0;childLayout=stackLayout;horizontal=1;startSize=26;fillColor=none;horizontalStack=0;resizeParent=1;resizeParentMax=0;resizeLast=0;collapsible=1;marginBottom=0;whiteSpace=wrap;html=1;" vertex="1" parent="WIyWlLk6GJQsqaUBKTNV-1">
          <mxGeometry x="414" y="-170" width="296" height="390" as="geometry" />
        </mxCell>
        <mxCell id="252Kge543lOU3ZYRhDYf-6" value="id: Long" style="text;strokeColor=none;fillColor=none;align=left;verticalAlign=top;spacingLeft=4;spacingRight=4;overflow=hidden;rotatable=0;points=[[0,0.5],[1,0.5]];portConstraint=eastwest;whiteSpace=wrap;html=1;" vertex="1" parent="H1jrmsrq5WMabytAlDn--7">
          <mxGeometry y="26" width="296" height="26" as="geometry" />
        </mxCell>
        <mxCell id="4aXK18WvDHzOdIGlynKA-0" value="dataLancamento: Date" style="text;strokeColor=none;fillColor=none;align=left;verticalAlign=top;spacingLeft=4;spacingRight=4;overflow=hidden;rotatable=0;points=[[0,0.5],[1,0.5]];portConstraint=eastwest;whiteSpace=wrap;html=1;" vertex="1" parent="H1jrmsrq5WMabytAlDn--7">
          <mxGeometry y="52" width="296" height="26" as="geometry" />
        </mxCell>
        <mxCell id="H1jrmsrq5WMabytAlDn--8" value="codigo: Long" style="text;strokeColor=none;fillColor=none;align=left;verticalAlign=top;spacingLeft=4;spacingRight=4;overflow=hidden;rotatable=0;points=[[0,0.5],[1,0.5]];portConstraint=eastwest;whiteSpace=wrap;html=1;" vertex="1" parent="H1jrmsrq5WMabytAlDn--7">
          <mxGeometry y="78" width="296" height="26" as="geometry" />
        </mxCell>
        <mxCell id="H1jrmsrq5WMabytAlDn--9" value="exercicio: Exercicio&lt;div&gt;&lt;br&gt;&lt;/div&gt;" style="text;strokeColor=none;fillColor=none;align=left;verticalAlign=top;spacingLeft=4;spacingRight=4;overflow=hidden;rotatable=0;points=[[0,0.5],[1,0.5]];portConstraint=eastwest;whiteSpace=wrap;html=1;" vertex="1" parent="H1jrmsrq5WMabytAlDn--7">
          <mxGeometry y="104" width="296" height="26" as="geometry" />
        </mxCell>
        <mxCell id="4aXK18WvDHzOdIGlynKA-1" value="usuarioSistema: UsuarioSistema" style="text;strokeColor=none;fillColor=none;align=left;verticalAlign=top;spacingLeft=4;spacingRight=4;overflow=hidden;rotatable=0;points=[[0,0.5],[1,0.5]];portConstraint=eastwest;whiteSpace=wrap;html=1;" vertex="1" parent="H1jrmsrq5WMabytAlDn--7">
          <mxGeometry y="130" width="296" height="26" as="geometry" />
        </mxCell>
        <mxCell id="H1jrmsrq5WMabytAlDn--10" value="tipoCadastroTributario: TipoCadastroTributario" style="text;strokeColor=none;fillColor=none;align=left;verticalAlign=top;spacingLeft=4;spacingRight=4;overflow=hidden;rotatable=0;points=[[0,0.5],[1,0.5]];portConstraint=eastwest;whiteSpace=wrap;html=1;" vertex="1" parent="H1jrmsrq5WMabytAlDn--7">
          <mxGeometry y="156" width="296" height="26" as="geometry" />
        </mxCell>
        <mxCell id="H1jrmsrq5WMabytAlDn--11" value="cadastro: Cadastro" style="text;strokeColor=none;fillColor=none;align=left;verticalAlign=top;spacingLeft=4;spacingRight=4;overflow=hidden;rotatable=0;points=[[0,0.5],[1,0.5]];portConstraint=eastwest;whiteSpace=wrap;html=1;" vertex="1" parent="H1jrmsrq5WMabytAlDn--7">
          <mxGeometry y="182" width="296" height="26" as="geometry" />
        </mxCell>
        <mxCell id="H1jrmsrq5WMabytAlDn--12" value="pessoa: Pessoa" style="text;strokeColor=none;fillColor=none;align=left;verticalAlign=top;spacingLeft=4;spacingRight=4;overflow=hidden;rotatable=0;points=[[0,0.5],[1,0.5]];portConstraint=eastwest;whiteSpace=wrap;html=1;" vertex="1" parent="H1jrmsrq5WMabytAlDn--7">
          <mxGeometry y="208" width="296" height="26" as="geometry" />
        </mxCell>
        <mxCell id="Z64cE9ufMMVqV28Xamie-0" value="procurador: Boolean" style="text;strokeColor=none;fillColor=none;align=left;verticalAlign=top;spacingLeft=4;spacingRight=4;overflow=hidden;rotatable=0;points=[[0,0.5],[1,0.5]];portConstraint=eastwest;whiteSpace=wrap;html=1;" vertex="1" parent="H1jrmsrq5WMabytAlDn--7">
          <mxGeometry y="234" width="296" height="26" as="geometry" />
        </mxCell>
        <mxCell id="H1jrmsrq5WMabytAlDn--31" value="sigla: String" style="text;strokeColor=none;fillColor=none;align=left;verticalAlign=top;spacingLeft=4;spacingRight=4;overflow=hidden;rotatable=0;points=[[0,0.5],[1,0.5]];portConstraint=eastwest;whiteSpace=wrap;html=1;" vertex="1" parent="H1jrmsrq5WMabytAlDn--7">
          <mxGeometry y="260" width="296" height="26" as="geometry" />
        </mxCell>
        <mxCell id="H1jrmsrq5WMabytAlDn--32" value="logo: Arquivo" style="text;strokeColor=none;fillColor=none;align=left;verticalAlign=top;spacingLeft=4;spacingRight=4;overflow=hidden;rotatable=0;points=[[0,0.5],[1,0.5]];portConstraint=eastwest;whiteSpace=wrap;html=1;" vertex="1" parent="H1jrmsrq5WMabytAlDn--7">
          <mxGeometry y="286" width="296" height="26" as="geometry" />
        </mxCell>
        <mxCell id="H1jrmsrq5WMabytAlDn--42" value="anexos: List" style="text;strokeColor=none;fillColor=none;align=left;verticalAlign=top;spacingLeft=4;spacingRight=4;overflow=hidden;rotatable=0;points=[[0,0.5],[1,0.5]];portConstraint=eastwest;whiteSpace=wrap;html=1;" vertex="1" parent="H1jrmsrq5WMabytAlDn--7">
          <mxGeometry y="312" width="296" height="26" as="geometry" />
        </mxCell>
        <mxCell id="H1jrmsrq5WMabytAlDn--62" value="situacao: SituacaoMarcaFogo" style="text;strokeColor=none;fillColor=none;align=left;verticalAlign=top;spacingLeft=4;spacingRight=4;overflow=hidden;rotatable=0;points=[[0,0.5],[1,0.5]];portConstraint=eastwest;whiteSpace=wrap;html=1;" vertex="1" parent="H1jrmsrq5WMabytAlDn--7">
          <mxGeometry y="338" width="296" height="26" as="geometry" />
        </mxCell>
        <mxCell id="H1jrmsrq5WMabytAlDn--70" value="debitos: List" style="text;strokeColor=none;fillColor=none;align=left;verticalAlign=top;spacingLeft=4;spacingRight=4;overflow=hidden;rotatable=0;points=[[0,0.5],[1,0.5]];portConstraint=eastwest;whiteSpace=wrap;html=1;" vertex="1" parent="H1jrmsrq5WMabytAlDn--7">
          <mxGeometry y="364" width="296" height="26" as="geometry" />
        </mxCell>
        <mxCell id="H1jrmsrq5WMabytAlDn--13" value="Exercicio" style="swimlane;fontStyle=1;align=center;verticalAlign=top;childLayout=stackLayout;horizontal=1;startSize=26;horizontalStack=0;resizeParent=1;resizeParentMax=0;resizeLast=0;collapsible=1;marginBottom=0;whiteSpace=wrap;html=1;" vertex="1" parent="WIyWlLk6GJQsqaUBKTNV-1">
          <mxGeometry x="910" y="-189" width="160" height="34" as="geometry" />
        </mxCell>
        <mxCell id="H1jrmsrq5WMabytAlDn--15" value="" style="line;strokeWidth=1;fillColor=none;align=left;verticalAlign=middle;spacingTop=-1;spacingLeft=3;spacingRight=3;rotatable=0;labelPosition=right;points=[];portConstraint=eastwest;strokeColor=inherit;" vertex="1" parent="H1jrmsrq5WMabytAlDn--13">
          <mxGeometry y="26" width="160" height="8" as="geometry" />
        </mxCell>
        <mxCell id="H1jrmsrq5WMabytAlDn--21" value="TipoCadastro" style="swimlane;fontStyle=1;align=center;verticalAlign=top;childLayout=stackLayout;horizontal=1;startSize=26;horizontalStack=0;resizeParent=1;resizeParentMax=0;resizeLast=0;collapsible=1;marginBottom=0;whiteSpace=wrap;html=1;" vertex="1" parent="WIyWlLk6GJQsqaUBKTNV-1">
          <mxGeometry x="910" y="-70" width="160" height="34" as="geometry" />
        </mxCell>
        <mxCell id="H1jrmsrq5WMabytAlDn--22" value="" style="line;strokeWidth=1;fillColor=none;align=left;verticalAlign=middle;spacingTop=-1;spacingLeft=3;spacingRight=3;rotatable=0;labelPosition=right;points=[];portConstraint=eastwest;strokeColor=inherit;" vertex="1" parent="H1jrmsrq5WMabytAlDn--21">
          <mxGeometry y="26" width="160" height="8" as="geometry" />
        </mxCell>
        <mxCell id="H1jrmsrq5WMabytAlDn--25" value="Cadastro" style="swimlane;fontStyle=1;align=center;verticalAlign=top;childLayout=stackLayout;horizontal=1;startSize=26;horizontalStack=0;resizeParent=1;resizeParentMax=0;resizeLast=0;collapsible=1;marginBottom=0;whiteSpace=wrap;html=1;" vertex="1" parent="WIyWlLk6GJQsqaUBKTNV-1">
          <mxGeometry x="910" y="-10" width="160" height="34" as="geometry" />
        </mxCell>
        <mxCell id="H1jrmsrq5WMabytAlDn--26" value="" style="line;strokeWidth=1;fillColor=none;align=left;verticalAlign=middle;spacingTop=-1;spacingLeft=3;spacingRight=3;rotatable=0;labelPosition=right;points=[];portConstraint=eastwest;strokeColor=inherit;" vertex="1" parent="H1jrmsrq5WMabytAlDn--25">
          <mxGeometry y="26" width="160" height="8" as="geometry" />
        </mxCell>
        <mxCell id="H1jrmsrq5WMabytAlDn--28" value="Pessoa" style="swimlane;fontStyle=1;align=center;verticalAlign=top;childLayout=stackLayout;horizontal=1;startSize=26;horizontalStack=0;resizeParent=1;resizeParentMax=0;resizeLast=0;collapsible=1;marginBottom=0;whiteSpace=wrap;html=1;" vertex="1" parent="WIyWlLk6GJQsqaUBKTNV-1">
          <mxGeometry x="910" y="50" width="160" height="34" as="geometry" />
        </mxCell>
        <mxCell id="H1jrmsrq5WMabytAlDn--29" value="" style="line;strokeWidth=1;fillColor=none;align=left;verticalAlign=middle;spacingTop=-1;spacingLeft=3;spacingRight=3;rotatable=0;labelPosition=right;points=[];portConstraint=eastwest;strokeColor=inherit;" vertex="1" parent="H1jrmsrq5WMabytAlDn--28">
          <mxGeometry y="26" width="160" height="8" as="geometry" />
        </mxCell>
        <mxCell id="H1jrmsrq5WMabytAlDn--33" value="Arquivo" style="swimlane;fontStyle=1;align=center;verticalAlign=top;childLayout=stackLayout;horizontal=1;startSize=26;horizontalStack=0;resizeParent=1;resizeParentMax=0;resizeLast=0;collapsible=1;marginBottom=0;whiteSpace=wrap;html=1;" vertex="1" parent="WIyWlLk6GJQsqaUBKTNV-1">
          <mxGeometry x="910" y="110" width="160" height="34" as="geometry" />
        </mxCell>
        <mxCell id="H1jrmsrq5WMabytAlDn--34" value="" style="line;strokeWidth=1;fillColor=none;align=left;verticalAlign=middle;spacingTop=-1;spacingLeft=3;spacingRight=3;rotatable=0;labelPosition=right;points=[];portConstraint=eastwest;strokeColor=inherit;" vertex="1" parent="H1jrmsrq5WMabytAlDn--33">
          <mxGeometry y="26" width="160" height="8" as="geometry" />
        </mxCell>
        <mxCell id="H1jrmsrq5WMabytAlDn--39" value="" style="endArrow=open;html=1;endSize=12;startArrow=diamondThin;startSize=14;startFill=0;edgeStyle=orthogonalEdgeStyle;rounded=0;" edge="1" parent="WIyWlLk6GJQsqaUBKTNV-1" source="252Kge543lOU3ZYRhDYf-14" target="H1jrmsrq5WMabytAlDn--42">
          <mxGeometry relative="1" as="geometry">
            <mxPoint x="300" y="149.99999999999977" as="sourcePoint" />
            <mxPoint x="520" y="50" as="targetPoint" />
          </mxGeometry>
        </mxCell>
        <mxCell id="H1jrmsrq5WMabytAlDn--40" value="0..n" style="edgeLabel;resizable=0;html=1;align=left;verticalAlign=top;" connectable="0" vertex="1" parent="H1jrmsrq5WMabytAlDn--39">
          <mxGeometry x="-1" relative="1" as="geometry">
            <mxPoint x="10" y="-30" as="offset" />
          </mxGeometry>
        </mxCell>
        <mxCell id="H1jrmsrq5WMabytAlDn--41" value="1" style="edgeLabel;resizable=0;html=1;align=right;verticalAlign=top;" connectable="0" vertex="1" parent="H1jrmsrq5WMabytAlDn--39">
          <mxGeometry x="1" relative="1" as="geometry">
            <mxPoint x="-20" as="offset" />
          </mxGeometry>
        </mxCell>
        <mxCell id="H1jrmsrq5WMabytAlDn--63" value="SituacaoMarcaFogo" style="swimlane;fontStyle=1;align=center;verticalAlign=top;childLayout=stackLayout;horizontal=1;startSize=26;horizontalStack=0;resizeParent=1;resizeParentMax=0;resizeLast=0;collapsible=1;marginBottom=0;whiteSpace=wrap;html=1;" vertex="1" parent="WIyWlLk6GJQsqaUBKTNV-1">
          <mxGeometry x="860" y="168" width="230" height="52" as="geometry" />
        </mxCell>
        <mxCell id="H1jrmsrq5WMabytAlDn--67" value="ABERTO, PROCESSADO" style="text;strokeColor=none;fillColor=none;align=left;verticalAlign=top;spacingLeft=4;spacingRight=4;overflow=hidden;rotatable=0;points=[[0,0.5],[1,0.5]];portConstraint=eastwest;whiteSpace=wrap;html=1;" vertex="1" parent="H1jrmsrq5WMabytAlDn--63">
          <mxGeometry y="26" width="230" height="26" as="geometry" />
        </mxCell>
        <mxCell id="H1jrmsrq5WMabytAlDn--76" value="DebitoMarcaFogo" style="swimlane;fontStyle=0;childLayout=stackLayout;horizontal=1;startSize=26;fillColor=none;horizontalStack=0;resizeParent=1;resizeParentMax=0;resizeLast=0;collapsible=1;marginBottom=0;whiteSpace=wrap;html=1;" vertex="1" parent="WIyWlLk6GJQsqaUBKTNV-1">
          <mxGeometry x="670" y="310" width="270" height="156" as="geometry" />
        </mxCell>
        <mxCell id="252Kge543lOU3ZYRhDYf-20" value="id: Long" style="text;strokeColor=none;fillColor=none;align=left;verticalAlign=top;spacingLeft=4;spacingRight=4;overflow=hidden;rotatable=0;points=[[0,0.5],[1,0.5]];portConstraint=eastwest;whiteSpace=wrap;html=1;" vertex="1" parent="H1jrmsrq5WMabytAlDn--76">
          <mxGeometry y="26" width="270" height="26" as="geometry" />
        </mxCell>
        <mxCell id="252Kge543lOU3ZYRhDYf-4" value="marcaFogo: MarcaFogo" style="text;strokeColor=none;fillColor=none;align=left;verticalAlign=top;spacingLeft=4;spacingRight=4;overflow=hidden;rotatable=0;points=[[0,0.5],[1,0.5]];portConstraint=eastwest;whiteSpace=wrap;html=1;" vertex="1" parent="H1jrmsrq5WMabytAlDn--76">
          <mxGeometry y="52" width="270" height="26" as="geometry" />
        </mxCell>
        <mxCell id="H1jrmsrq5WMabytAlDn--79" value="tipoEmissao: TipoEmissaoMarcaFogo" style="text;strokeColor=none;fillColor=none;align=left;verticalAlign=top;spacingLeft=4;spacingRight=4;overflow=hidden;rotatable=0;points=[[0,0.5],[1,0.5]];portConstraint=eastwest;whiteSpace=wrap;html=1;" vertex="1" parent="H1jrmsrq5WMabytAlDn--76">
          <mxGeometry y="78" width="270" height="26" as="geometry" />
        </mxCell>
        <mxCell id="H1jrmsrq5WMabytAlDn--77" value="calculoTaxasDiversas: CalculoTaxasDiversas" style="text;strokeColor=none;fillColor=none;align=left;verticalAlign=top;spacingLeft=4;spacingRight=4;overflow=hidden;rotatable=0;points=[[0,0.5],[1,0.5]];portConstraint=eastwest;whiteSpace=wrap;html=1;" vertex="1" parent="H1jrmsrq5WMabytAlDn--76">
          <mxGeometry y="104" width="270" height="26" as="geometry" />
        </mxCell>
        <mxCell id="H1jrmsrq5WMabytAlDn--83" value="documentoOficial: DocumentoOficial" style="text;strokeColor=none;fillColor=none;align=left;verticalAlign=top;spacingLeft=4;spacingRight=4;overflow=hidden;rotatable=0;points=[[0,0.5],[1,0.5]];portConstraint=eastwest;whiteSpace=wrap;html=1;" vertex="1" parent="H1jrmsrq5WMabytAlDn--76">
          <mxGeometry y="130" width="270" height="26" as="geometry" />
        </mxCell>
        <mxCell id="H1jrmsrq5WMabytAlDn--84" value="CalculoTaxasDiversas" style="swimlane;fontStyle=1;align=center;verticalAlign=top;childLayout=stackLayout;horizontal=1;startSize=26;horizontalStack=0;resizeParent=1;resizeParentMax=0;resizeLast=0;collapsible=1;marginBottom=0;whiteSpace=wrap;html=1;" vertex="1" parent="WIyWlLk6GJQsqaUBKTNV-1">
          <mxGeometry x="1050" y="360" width="160" height="34" as="geometry" />
        </mxCell>
        <mxCell id="H1jrmsrq5WMabytAlDn--85" value="" style="line;strokeWidth=1;fillColor=none;align=left;verticalAlign=middle;spacingTop=-1;spacingLeft=3;spacingRight=3;rotatable=0;labelPosition=right;points=[];portConstraint=eastwest;strokeColor=inherit;" vertex="1" parent="H1jrmsrq5WMabytAlDn--84">
          <mxGeometry y="26" width="160" height="8" as="geometry" />
        </mxCell>
        <mxCell id="H1jrmsrq5WMabytAlDn--86" value="DocumentoOficial" style="swimlane;fontStyle=1;align=center;verticalAlign=top;childLayout=stackLayout;horizontal=1;startSize=26;horizontalStack=0;resizeParent=1;resizeParentMax=0;resizeLast=0;collapsible=1;marginBottom=0;whiteSpace=wrap;html=1;" vertex="1" parent="WIyWlLk6GJQsqaUBKTNV-1">
          <mxGeometry x="1050" y="420" width="160" height="34" as="geometry" />
        </mxCell>
        <mxCell id="H1jrmsrq5WMabytAlDn--87" value="" style="line;strokeWidth=1;fillColor=none;align=left;verticalAlign=middle;spacingTop=-1;spacingLeft=3;spacingRight=3;rotatable=0;labelPosition=right;points=[];portConstraint=eastwest;strokeColor=inherit;" vertex="1" parent="H1jrmsrq5WMabytAlDn--86">
          <mxGeometry y="26" width="160" height="8" as="geometry" />
        </mxCell>
        <mxCell id="252Kge543lOU3ZYRhDYf-14" value="AnexoMarcaFogo" style="swimlane;fontStyle=0;childLayout=stackLayout;horizontal=1;startSize=26;fillColor=none;horizontalStack=0;resizeParent=1;resizeParentMax=0;resizeLast=0;collapsible=1;marginBottom=0;whiteSpace=wrap;html=1;" vertex="1" parent="WIyWlLk6GJQsqaUBKTNV-1">
          <mxGeometry x="70" y="240" width="360" height="130" as="geometry" />
        </mxCell>
        <mxCell id="252Kge543lOU3ZYRhDYf-19" value="id: Long" style="text;strokeColor=none;fillColor=none;align=left;verticalAlign=top;spacingLeft=4;spacingRight=4;overflow=hidden;rotatable=0;points=[[0,0.5],[1,0.5]];portConstraint=eastwest;whiteSpace=wrap;html=1;" vertex="1" parent="252Kge543lOU3ZYRhDYf-14">
          <mxGeometry y="26" width="360" height="26" as="geometry" />
        </mxCell>
        <mxCell id="252Kge543lOU3ZYRhDYf-15" value="marcaFogo: MarcaFogo" style="text;strokeColor=none;fillColor=none;align=left;verticalAlign=top;spacingLeft=4;spacingRight=4;overflow=hidden;rotatable=0;points=[[0,0.5],[1,0.5]];portConstraint=eastwest;whiteSpace=wrap;html=1;" vertex="1" parent="252Kge543lOU3ZYRhDYf-14">
          <mxGeometry y="52" width="360" height="26" as="geometry" />
        </mxCell>
        <mxCell id="Z64cE9ufMMVqV28Xamie-1" value="documentoMarcaFogo: DocumentoMarcaFogo" style="text;strokeColor=none;fillColor=none;align=left;verticalAlign=top;spacingLeft=4;spacingRight=4;overflow=hidden;rotatable=0;points=[[0,0.5],[1,0.5]];portConstraint=eastwest;whiteSpace=wrap;html=1;" vertex="1" parent="252Kge543lOU3ZYRhDYf-14">
          <mxGeometry y="78" width="360" height="26" as="geometry" />
        </mxCell>
        <mxCell id="252Kge543lOU3ZYRhDYf-33" value="arquivo&lt;span style=&quot;background-color: initial;&quot;&gt;: Arquivo&lt;/span&gt;" style="text;strokeColor=none;fillColor=none;align=left;verticalAlign=top;spacingLeft=4;spacingRight=4;overflow=hidden;rotatable=0;points=[[0,0.5],[1,0.5]];portConstraint=eastwest;whiteSpace=wrap;html=1;" vertex="1" parent="252Kge543lOU3ZYRhDYf-14">
          <mxGeometry y="104" width="360" height="26" as="geometry" />
        </mxCell>
        <mxCell id="252Kge543lOU3ZYRhDYf-34" value="Arquivo" style="swimlane;fontStyle=1;align=center;verticalAlign=top;childLayout=stackLayout;horizontal=1;startSize=26;horizontalStack=0;resizeParent=1;resizeParentMax=0;resizeLast=0;collapsible=1;marginBottom=0;whiteSpace=wrap;html=1;" vertex="1" parent="WIyWlLk6GJQsqaUBKTNV-1">
          <mxGeometry x="260" y="420" width="160" height="34" as="geometry" />
        </mxCell>
        <mxCell id="252Kge543lOU3ZYRhDYf-35" value="" style="line;strokeWidth=1;fillColor=none;align=left;verticalAlign=middle;spacingTop=-1;spacingLeft=3;spacingRight=3;rotatable=0;labelPosition=right;points=[];portConstraint=eastwest;strokeColor=inherit;" vertex="1" parent="252Kge543lOU3ZYRhDYf-34">
          <mxGeometry y="26" width="160" height="8" as="geometry" />
        </mxCell>
        <mxCell id="252Kge543lOU3ZYRhDYf-39" value="TipoEmissaoMarcaFogo" style="swimlane;fontStyle=0;childLayout=stackLayout;horizontal=1;startSize=26;fillColor=none;horizontalStack=0;resizeParent=1;resizeParentMax=0;resizeLast=0;collapsible=1;marginBottom=0;whiteSpace=wrap;html=1;" vertex="1" parent="WIyWlLk6GJQsqaUBKTNV-1">
          <mxGeometry x="1030" y="290" width="200" height="52" as="geometry" />
        </mxCell>
        <mxCell id="252Kge543lOU3ZYRhDYf-40" value="PRIMEIRO_VIA, SEGUNDA_VIA" style="text;strokeColor=none;fillColor=none;align=left;verticalAlign=top;spacingLeft=4;spacingRight=4;overflow=hidden;rotatable=0;points=[[0,0.5],[1,0.5]];portConstraint=eastwest;whiteSpace=wrap;html=1;" vertex="1" parent="252Kge543lOU3ZYRhDYf-39">
          <mxGeometry y="26" width="200" height="26" as="geometry" />
        </mxCell>
        <mxCell id="4aXK18WvDHzOdIGlynKA-2" value="UsuarioSistema" style="swimlane;fontStyle=1;align=center;verticalAlign=top;childLayout=stackLayout;horizontal=1;startSize=26;horizontalStack=0;resizeParent=1;resizeParentMax=0;resizeLast=0;collapsible=1;marginBottom=0;whiteSpace=wrap;html=1;" vertex="1" parent="WIyWlLk6GJQsqaUBKTNV-1">
          <mxGeometry x="910" y="-130" width="160" height="34" as="geometry" />
        </mxCell>
        <mxCell id="4aXK18WvDHzOdIGlynKA-3" value="" style="line;strokeWidth=1;fillColor=none;align=left;verticalAlign=middle;spacingTop=-1;spacingLeft=3;spacingRight=3;rotatable=0;labelPosition=right;points=[];portConstraint=eastwest;strokeColor=inherit;" vertex="1" parent="4aXK18WvDHzOdIGlynKA-2">
          <mxGeometry y="26" width="160" height="8" as="geometry" />
        </mxCell>
        <mxCell id="4aXK18WvDHzOdIGlynKA-5" style="edgeStyle=orthogonalEdgeStyle;rounded=0;orthogonalLoop=1;jettySize=auto;html=1;exitX=1;exitY=0.5;exitDx=0;exitDy=0;" edge="1" parent="WIyWlLk6GJQsqaUBKTNV-1" source="252Kge543lOU3ZYRhDYf-33" target="252Kge543lOU3ZYRhDYf-34">
          <mxGeometry relative="1" as="geometry" />
        </mxCell>
        <mxCell id="4aXK18WvDHzOdIGlynKA-6" style="edgeStyle=orthogonalEdgeStyle;rounded=0;orthogonalLoop=1;jettySize=auto;html=1;exitX=1;exitY=0.5;exitDx=0;exitDy=0;entryX=0.25;entryY=0;entryDx=0;entryDy=0;" edge="1" parent="WIyWlLk6GJQsqaUBKTNV-1" source="H1jrmsrq5WMabytAlDn--70" target="H1jrmsrq5WMabytAlDn--76">
          <mxGeometry relative="1" as="geometry" />
        </mxCell>
        <mxCell id="4aXK18WvDHzOdIGlynKA-8" style="edgeStyle=orthogonalEdgeStyle;rounded=0;orthogonalLoop=1;jettySize=auto;html=1;exitX=1;exitY=0.5;exitDx=0;exitDy=0;entryX=0.001;entryY=-0.07;entryDx=0;entryDy=0;entryPerimeter=0;" edge="1" parent="WIyWlLk6GJQsqaUBKTNV-1" source="H1jrmsrq5WMabytAlDn--79" target="252Kge543lOU3ZYRhDYf-40">
          <mxGeometry relative="1" as="geometry" />
        </mxCell>
        <mxCell id="4aXK18WvDHzOdIGlynKA-9" style="edgeStyle=orthogonalEdgeStyle;rounded=0;orthogonalLoop=1;jettySize=auto;html=1;exitX=1;exitY=0.5;exitDx=0;exitDy=0;entryX=0;entryY=0.5;entryDx=0;entryDy=0;" edge="1" parent="WIyWlLk6GJQsqaUBKTNV-1" source="H1jrmsrq5WMabytAlDn--77" target="H1jrmsrq5WMabytAlDn--84">
          <mxGeometry relative="1" as="geometry" />
        </mxCell>
        <mxCell id="4aXK18WvDHzOdIGlynKA-10" style="edgeStyle=orthogonalEdgeStyle;rounded=0;orthogonalLoop=1;jettySize=auto;html=1;exitX=1;exitY=0.5;exitDx=0;exitDy=0;" edge="1" parent="WIyWlLk6GJQsqaUBKTNV-1" source="H1jrmsrq5WMabytAlDn--83" target="H1jrmsrq5WMabytAlDn--86">
          <mxGeometry relative="1" as="geometry" />
        </mxCell>
        <mxCell id="4aXK18WvDHzOdIGlynKA-11" style="edgeStyle=orthogonalEdgeStyle;rounded=0;orthogonalLoop=1;jettySize=auto;html=1;exitX=1;exitY=0.5;exitDx=0;exitDy=0;" edge="1" parent="WIyWlLk6GJQsqaUBKTNV-1" source="H1jrmsrq5WMabytAlDn--62" target="H1jrmsrq5WMabytAlDn--63">
          <mxGeometry relative="1" as="geometry" />
        </mxCell>
        <mxCell id="4aXK18WvDHzOdIGlynKA-12" style="edgeStyle=orthogonalEdgeStyle;rounded=0;orthogonalLoop=1;jettySize=auto;html=1;exitX=1;exitY=0.5;exitDx=0;exitDy=0;entryX=0;entryY=0.5;entryDx=0;entryDy=0;" edge="1" parent="WIyWlLk6GJQsqaUBKTNV-1" source="H1jrmsrq5WMabytAlDn--32" target="H1jrmsrq5WMabytAlDn--33">
          <mxGeometry relative="1" as="geometry" />
        </mxCell>
        <mxCell id="4aXK18WvDHzOdIGlynKA-13" style="edgeStyle=orthogonalEdgeStyle;rounded=0;orthogonalLoop=1;jettySize=auto;html=1;exitX=1;exitY=0.5;exitDx=0;exitDy=0;entryX=0;entryY=0.75;entryDx=0;entryDy=0;" edge="1" parent="WIyWlLk6GJQsqaUBKTNV-1" source="H1jrmsrq5WMabytAlDn--12" target="H1jrmsrq5WMabytAlDn--28">
          <mxGeometry relative="1" as="geometry" />
        </mxCell>
        <mxCell id="4aXK18WvDHzOdIGlynKA-14" style="edgeStyle=orthogonalEdgeStyle;rounded=0;orthogonalLoop=1;jettySize=auto;html=1;exitX=1;exitY=0.5;exitDx=0;exitDy=0;entryX=0;entryY=0.5;entryDx=0;entryDy=0;" edge="1" parent="WIyWlLk6GJQsqaUBKTNV-1" source="H1jrmsrq5WMabytAlDn--11" target="H1jrmsrq5WMabytAlDn--25">
          <mxGeometry relative="1" as="geometry" />
        </mxCell>
        <mxCell id="4aXK18WvDHzOdIGlynKA-15" style="edgeStyle=orthogonalEdgeStyle;rounded=0;orthogonalLoop=1;jettySize=auto;html=1;exitX=1;exitY=0.5;exitDx=0;exitDy=0;entryX=0;entryY=0.5;entryDx=0;entryDy=0;" edge="1" parent="WIyWlLk6GJQsqaUBKTNV-1" source="4aXK18WvDHzOdIGlynKA-1" target="4aXK18WvDHzOdIGlynKA-2">
          <mxGeometry relative="1" as="geometry">
            <Array as="points">
              <mxPoint x="770" y="-27" />
              <mxPoint x="770" y="-113" />
            </Array>
          </mxGeometry>
        </mxCell>
        <mxCell id="4aXK18WvDHzOdIGlynKA-16" style="edgeStyle=orthogonalEdgeStyle;rounded=0;orthogonalLoop=1;jettySize=auto;html=1;exitX=1;exitY=0.5;exitDx=0;exitDy=0;entryX=0;entryY=0.75;entryDx=0;entryDy=0;" edge="1" parent="WIyWlLk6GJQsqaUBKTNV-1" source="H1jrmsrq5WMabytAlDn--10" target="H1jrmsrq5WMabytAlDn--21">
          <mxGeometry relative="1" as="geometry" />
        </mxCell>
        <mxCell id="4aXK18WvDHzOdIGlynKA-17" style="edgeStyle=orthogonalEdgeStyle;rounded=0;orthogonalLoop=1;jettySize=auto;html=1;exitX=1;exitY=0.5;exitDx=0;exitDy=0;entryX=0;entryY=0.25;entryDx=0;entryDy=0;" edge="1" parent="WIyWlLk6GJQsqaUBKTNV-1" source="H1jrmsrq5WMabytAlDn--9" target="H1jrmsrq5WMabytAlDn--13">
          <mxGeometry relative="1" as="geometry">
            <Array as="points">
              <mxPoint x="740" y="-53" />
              <mxPoint x="740" y="-181" />
            </Array>
          </mxGeometry>
        </mxCell>
      </root>
    </mxGraphModel>
  </diagram>
</mxfile>
